<svg width="507" height="266" viewBox="0 0 507 266" fill="none" xmlns="http://www.w3.org/2000/svg">
<g clip-path="url(#clip0)">
<path d="M502.27 160.65C495.19 151.31 480.88 148.88 468.06 147.65C449.36 145.8 429.37 144.31 414.63 134.22C408.35 129.92 403.39 124.22 396.81 120.32C379.56 109.99 356.4 113.79 335.37 114.7C322.05 115.277 308.705 114.507 295.54 112.4C289.1 111.4 282.54 109.95 277.19 106.71C264.19 98.88 261.13 82.57 248.61 74.14C235.81 65.53 217.4 67.81 201.85 72.08C186.3 76.35 170.3 82.29 154.36 79.66C139.95 77.28 128.36 68.26 118.62 58.76C107.502 47.9197 97.7319 35.7788 89.52 22.6C86.46 17.65 83.58 12.5 79.13 8.44C63.89 -5.53 35 -0.929997 20 13.42C5 27.77 0.809997 48.31 0.0799969 67.64C-1.06 97.64 10.79 126.29 16.29 155.87C19.17 171.37 32.16 186.48 50.41 185.98C70.73 185.42 87.82 169.15 108.1 170.08C125.56 170.89 138.36 184 149 196L182.69 234.21C192.62 245.47 203.3 257.21 218.53 262.34C230.39 266.34 243.53 265.77 256.31 265.15C266.68 264.65 277.99 263.81 285.62 257.61C289.69 254.31 292.19 249.85 295.25 245.81C312.47 223.12 357.04 223.81 388.08 222.08C419.12 220.35 440.27 214.35 470 206C481.28 202.83 492.39 197.81 499.51 189.53C506.63 181.25 508.75 169.2 502.27 160.65Z" fill="#F77976"/>
</g>
<defs>
<clipPath id="clip0">
<rect width="506.13" height="265.57" fill="white"/>
</clipPath>
</defs>
</svg>
