<svg width="157" height="160" viewBox="0 0 157 160" fill="none" xmlns="http://www.w3.org/2000/svg">
<g clip-path="url(#clip0)">
<path d="M151.94 101.56C154.76 93.66 157.12 85.56 156.01 76.99C155.01 68.86 151.17 61.38 147.01 54.54C138.138 40.0337 126.602 27.3371 113.01 17.12C100.33 7.51 84.88 -2.31 68.62 0.480001C54.29 3 42.49 14 33.54 25.34C27.8388 32.5586 22.9431 40.3783 18.94 48.66C17.07 52.56 15.4 56.58 13.94 60.66C12.32 65.1 11.31 69.75 9.75 74.2C5.74 85.53 -1.67 97.81 0.340003 110.41C1.59 118.24 6.4 125.24 11.34 130.99C16.9179 137.367 23.5305 142.76 30.9 146.94C44.5341 154.675 59.8779 158.899 75.55 159.23C91.01 159.58 107 156.05 120.28 147.49C136.59 136.96 145.28 119.87 151.91 101.56C153.49 97.2 146.81 95.35 145.24 99.69C139.83 114.62 132.92 129.39 120.24 138.86C110.04 146.46 97.69 150.55 85.3 151.65C58.39 154.05 25.64 143.65 10.76 118.3C7.41 112.59 6.31 107.3 7.69 100.75C9.07935 94.9037 10.9731 89.189 13.35 83.67C15.81 77.53 17.56 71.32 19.69 65.06C22.3353 57.3468 25.7702 49.9274 29.94 42.92C37.29 30.5 47.11 18 59.71 11.22C65.493 7.93984 72.1899 6.64049 78.78 7.52C86.17 8.65 92.94 12.34 99.28 16.31C114.063 25.4779 126.853 37.523 136.89 51.73C141.61 58.53 146.36 66.1 148.47 74.31C150.74 83.08 148.2 91.47 145.27 99.69C143.71 104.06 150.39 105.91 151.94 101.56Z" fill="#D883FF"/>
</g>
<defs>
<clipPath id="clip0">
<rect width="156.29" height="159.25" fill="white"/>
</clipPath>
</defs>
</svg>
