<svg width="285" height="298" viewBox="0 0 285 298" fill="none" xmlns="http://www.w3.org/2000/svg">
<g clip-path="url(#clip0)">
<path d="M274.07 216.69C279.725 216.69 284.31 211.868 284.31 205.92C284.31 199.972 279.725 195.15 274.07 195.15C268.415 195.15 263.83 199.972 263.83 205.92C263.83 211.868 268.415 216.69 274.07 216.69Z" fill="#F050AE"/>
<path d="M250.54 192.3C256.195 192.3 260.78 187.478 260.78 181.53C260.78 175.582 256.195 170.76 250.54 170.76C244.885 170.76 240.3 175.582 240.3 181.53C240.3 187.478 244.885 192.3 250.54 192.3Z" fill="#F050AE"/>
<path d="M227.02 167.9C232.675 167.9 237.26 163.078 237.26 157.13C237.26 151.182 232.675 146.36 227.02 146.36C221.365 146.36 216.78 151.182 216.78 157.13C216.78 163.078 221.365 167.9 227.02 167.9Z" fill="#F050AE"/>
<path d="M203.5 143.51C209.155 143.51 213.74 138.688 213.74 132.74C213.74 126.792 209.155 121.97 203.5 121.97C197.845 121.97 193.26 126.792 193.26 132.74C193.26 138.688 197.845 143.51 203.5 143.51Z" fill="#F050AE"/>
<path d="M179.97 119.11C185.625 119.11 190.21 114.288 190.21 108.34C190.21 102.392 185.625 97.57 179.97 97.57C174.315 97.57 169.73 102.392 169.73 108.34C169.73 114.288 174.315 119.11 179.97 119.11Z" fill="#F050AE"/>
<path d="M156.45 94.72C162.105 94.72 166.69 89.8981 166.69 83.95C166.69 78.0019 162.105 73.18 156.45 73.18C150.795 73.18 146.21 78.0019 146.21 83.95C146.21 89.8981 150.795 94.72 156.45 94.72Z" fill="#F050AE"/>
<path d="M132.92 70.32C138.575 70.32 143.16 65.4981 143.16 59.55C143.16 53.6019 138.575 48.78 132.92 48.78C127.265 48.78 122.68 53.6019 122.68 59.55C122.68 65.4981 127.265 70.32 132.92 70.32Z" fill="#F050AE"/>
<path d="M109.4 45.93C115.055 45.93 119.64 41.1081 119.64 35.16C119.64 29.2119 115.055 24.39 109.4 24.39C103.745 24.39 99.16 29.2119 99.16 35.16C99.16 41.1081 103.745 45.93 109.4 45.93Z" fill="#F050AE"/>
<path d="M85.88 21.54C91.5354 21.54 96.12 16.7181 96.12 10.77C96.12 4.82189 91.5354 0 85.88 0C80.2246 0 75.64 4.82189 75.64 10.77C75.64 16.7181 80.2246 21.54 85.88 21.54Z" fill="#F050AE"/>
<path d="M240.58 221.75C246.235 221.75 250.82 216.928 250.82 210.98C250.82 205.032 246.235 200.21 240.58 200.21C234.925 200.21 230.34 205.032 230.34 210.98C230.34 216.928 234.925 221.75 240.58 221.75Z" fill="#F050AE"/>
<path d="M217.06 197.36C222.715 197.36 227.3 192.538 227.3 186.59C227.3 180.642 222.715 175.82 217.06 175.82C211.405 175.82 206.82 180.642 206.82 186.59C206.82 192.538 211.405 197.36 217.06 197.36Z" fill="#F050AE"/>
<path d="M193.53 172.96C199.185 172.96 203.77 168.138 203.77 162.19C203.77 156.242 199.185 151.42 193.53 151.42C187.875 151.42 183.29 156.242 183.29 162.19C183.29 168.138 187.875 172.96 193.53 172.96Z" fill="#F050AE"/>
<path d="M170.01 148.57C175.665 148.57 180.25 143.748 180.25 137.8C180.25 131.852 175.665 127.03 170.01 127.03C164.355 127.03 159.77 131.852 159.77 137.8C159.77 143.748 164.355 148.57 170.01 148.57Z" fill="#F050AE"/>
<path d="M146.48 124.17C152.135 124.17 156.72 119.348 156.72 113.4C156.72 107.452 152.135 102.63 146.48 102.63C140.825 102.63 136.24 107.452 136.24 113.4C136.24 119.348 140.825 124.17 146.48 124.17Z" fill="#F050AE"/>
<path d="M122.96 99.78C128.615 99.78 133.2 94.9581 133.2 89.01C133.2 83.0619 128.615 78.24 122.96 78.24C117.305 78.24 112.72 83.0619 112.72 89.01C112.72 94.9581 117.305 99.78 122.96 99.78Z" fill="#F050AE"/>
<path d="M99.44 75.38C105.095 75.38 109.68 70.5581 109.68 64.61C109.68 58.6619 105.095 53.84 99.44 53.84C93.7846 53.84 89.2 58.6619 89.2 64.61C89.2 70.5581 93.7846 75.38 99.44 75.38Z" fill="#F050AE"/>
<path d="M75.91 50.99C81.5654 50.99 86.15 46.1681 86.15 40.22C86.15 34.2719 81.5654 29.45 75.91 29.45C70.2547 29.45 65.67 34.2719 65.67 40.22C65.67 46.1681 70.2547 50.99 75.91 50.99Z" fill="#F050AE"/>
<path d="M52.39 26.59C58.0454 26.59 62.63 21.7681 62.63 15.82C62.63 9.87188 58.0454 5.04999 52.39 5.04999C46.7346 5.04999 42.15 9.87188 42.15 15.82C42.15 21.7681 46.7346 26.59 52.39 26.59Z" fill="#F050AE"/>
<path d="M236.25 257.04C241.905 257.04 246.49 252.218 246.49 246.27C246.49 240.322 241.905 235.5 236.25 235.5C230.595 235.5 226.01 240.322 226.01 246.27C226.01 252.218 230.595 257.04 236.25 257.04Z" fill="#F050AE"/>
<path d="M212.72 232.65C218.375 232.65 222.96 227.828 222.96 221.88C222.96 215.932 218.375 211.11 212.72 211.11C207.065 211.11 202.48 215.932 202.48 221.88C202.48 227.828 207.065 232.65 212.72 232.65Z" fill="#F050AE"/>
<path d="M189.2 208.25C194.855 208.25 199.44 203.428 199.44 197.48C199.44 191.532 194.855 186.71 189.2 186.71C183.545 186.71 178.96 191.532 178.96 197.48C178.96 203.428 183.545 208.25 189.2 208.25Z" fill="#F050AE"/>
<path d="M165.68 183.86C171.335 183.86 175.92 179.038 175.92 173.09C175.92 167.142 171.335 162.32 165.68 162.32C160.025 162.32 155.44 167.142 155.44 173.09C155.44 179.038 160.025 183.86 165.68 183.86Z" fill="#F050AE"/>
<path d="M142.15 159.46C147.805 159.46 152.39 154.638 152.39 148.69C152.39 142.742 147.805 137.92 142.15 137.92C136.495 137.92 131.91 142.742 131.91 148.69C131.91 154.638 136.495 159.46 142.15 159.46Z" fill="#F050AE"/>
<path d="M118.63 135.07C124.285 135.07 128.87 130.248 128.87 124.3C128.87 118.352 124.285 113.53 118.63 113.53C112.975 113.53 108.39 118.352 108.39 124.3C108.39 130.248 112.975 135.07 118.63 135.07Z" fill="#F050AE"/>
<path d="M95.1 110.67C100.755 110.67 105.34 105.848 105.34 99.9C105.34 93.9519 100.755 89.13 95.1 89.13C89.4446 89.13 84.86 93.9519 84.86 99.9C84.86 105.848 89.4446 110.67 95.1 110.67Z" fill="#F050AE"/>
<path d="M71.58 86.28C77.2354 86.28 81.82 81.4581 81.82 75.51C81.82 69.5619 77.2354 64.74 71.58 64.74C65.9246 64.74 61.34 69.5619 61.34 75.51C61.34 81.4581 65.9246 86.28 71.58 86.28Z" fill="#F050AE"/>
<path d="M48.0599 61.89C53.7153 61.89 58.2999 57.0681 58.2999 51.12C58.2999 45.1719 53.7153 40.35 48.0599 40.35C42.4046 40.35 37.8199 45.1719 37.8199 51.12C37.8199 57.0681 42.4046 61.89 48.0599 61.89Z" fill="#F050AE"/>
<path d="M202.76 262.1C208.415 262.1 213 257.278 213 251.33C213 245.382 208.415 240.56 202.76 240.56C197.105 240.56 192.52 245.382 192.52 251.33C192.52 257.278 197.105 262.1 202.76 262.1Z" fill="#F050AE"/>
<path d="M179.24 237.7C184.895 237.7 189.48 232.878 189.48 226.93C189.48 220.982 184.895 216.16 179.24 216.16C173.585 216.16 169 220.982 169 226.93C169 232.878 173.585 237.7 179.24 237.7Z" fill="#F050AE"/>
<path d="M155.71 213.31C161.365 213.31 165.95 208.488 165.95 202.54C165.95 196.592 161.365 191.77 155.71 191.77C150.055 191.77 145.47 196.592 145.47 202.54C145.47 208.488 150.055 213.31 155.71 213.31Z" fill="#F050AE"/>
<path d="M132.19 188.92C137.845 188.92 142.43 184.098 142.43 178.15C142.43 172.202 137.845 167.38 132.19 167.38C126.535 167.38 121.95 172.202 121.95 178.15C121.95 184.098 126.535 188.92 132.19 188.92Z" fill="#F050AE"/>
<path d="M108.66 164.52C114.315 164.52 118.9 159.698 118.9 153.75C118.9 147.802 114.315 142.98 108.66 142.98C103.005 142.98 98.42 147.802 98.42 153.75C98.42 159.698 103.005 164.52 108.66 164.52Z" fill="#F050AE"/>
<path d="M85.14 140.13C90.7954 140.13 95.38 135.308 95.38 129.36C95.38 123.412 90.7954 118.59 85.14 118.59C79.4846 118.59 74.9 123.412 74.9 129.36C74.9 135.308 79.4846 140.13 85.14 140.13Z" fill="#F050AE"/>
<path d="M61.62 115.73C67.2754 115.73 71.86 110.908 71.86 104.96C71.86 99.0119 67.2754 94.19 61.62 94.19C55.9646 94.19 51.38 99.0119 51.38 104.96C51.38 110.908 55.9646 115.73 61.62 115.73Z" fill="#F050AE"/>
<path d="M38.09 91.34C43.7454 91.34 48.33 86.5181 48.33 80.57C48.33 74.6219 43.7454 69.8 38.09 69.8C32.4346 69.8 27.85 74.6219 27.85 80.57C27.85 86.5181 32.4346 91.34 38.09 91.34Z" fill="#F050AE"/>
<path d="M14.57 66.94C20.2254 66.94 24.81 62.1181 24.81 56.17C24.81 50.2219 20.2254 45.4 14.57 45.4C8.91456 45.4 4.32996 50.2219 4.32996 56.17C4.32996 62.1181 8.91456 66.94 14.57 66.94Z" fill="#F050AE"/>
<path d="M198.43 297.39C204.085 297.39 208.67 292.568 208.67 286.62C208.67 280.672 204.085 275.85 198.43 275.85C192.775 275.85 188.19 280.672 188.19 286.62C188.19 292.568 192.775 297.39 198.43 297.39Z" fill="#F050AE"/>
<path d="M174.9 273C180.555 273 185.14 268.178 185.14 262.23C185.14 256.282 180.555 251.46 174.9 251.46C169.245 251.46 164.66 256.282 164.66 262.23C164.66 268.178 169.245 273 174.9 273Z" fill="#F050AE"/>
<path d="M151.38 248.6C157.035 248.6 161.62 243.778 161.62 237.83C161.62 231.882 157.035 227.06 151.38 227.06C145.725 227.06 141.14 231.882 141.14 237.83C141.14 243.778 145.725 248.6 151.38 248.6Z" fill="#F050AE"/>
<path d="M127.86 224.21C133.515 224.21 138.1 219.388 138.1 213.44C138.1 207.492 133.515 202.67 127.86 202.67C122.205 202.67 117.62 207.492 117.62 213.44C117.62 219.388 122.205 224.21 127.86 224.21Z" fill="#F050AE"/>
<path d="M104.33 199.81C109.985 199.81 114.57 194.988 114.57 189.04C114.57 183.092 109.985 178.27 104.33 178.27C98.6746 178.27 94.09 183.092 94.09 189.04C94.09 194.988 98.6746 199.81 104.33 199.81Z" fill="#F050AE"/>
<path d="M80.8099 175.42C86.4653 175.42 91.0499 170.598 91.0499 164.65C91.0499 158.702 86.4653 153.88 80.8099 153.88C75.1545 153.88 70.5699 158.702 70.5699 164.65C70.5699 170.598 75.1545 175.42 80.8099 175.42Z" fill="#F050AE"/>
<path d="M57.28 151.02C62.9354 151.02 67.52 146.198 67.52 140.25C67.52 134.302 62.9354 129.48 57.28 129.48C51.6246 129.48 47.04 134.302 47.04 140.25C47.04 146.198 51.6246 151.02 57.28 151.02Z" fill="#F050AE"/>
<path d="M33.76 126.63C39.4154 126.63 44 121.808 44 115.86C44 109.912 39.4154 105.09 33.76 105.09C28.1046 105.09 23.52 109.912 23.52 115.86C23.52 121.808 28.1046 126.63 33.76 126.63Z" fill="#F050AE"/>
<path d="M10.24 102.23C15.8954 102.23 20.48 97.4081 20.48 91.46C20.48 85.5119 15.8954 80.69 10.24 80.69C4.5846 80.69 0 85.5119 0 91.46C0 97.4081 4.5846 102.23 10.24 102.23Z" fill="#F050AE"/>
</g>
<defs>
<clipPath id="clip0">
<rect width="284.3" height="297.39" fill="white"/>
</clipPath>
</defs>
</svg>
