<svg xmlns="http://www.w3.org/2000/svg" viewBox="0 0 291.71 289.98"><defs><style>.cls-1{fill:#e1513f;}</style></defs><g id="Layer_2" data-name="Layer 2"><g id="VECTOR_2" data-name="VECTOR 2"><polygon class="cls-1" points="4.65 185.88 0 181.02 4.72 164.78 245.86 255.24 211.85 263.6 4.65 185.88"/><polygon class="cls-1" points="9.55 148.15 15.08 129.1 260.63 221.22 255.1 240.26 9.55 148.15"/><polygon class="cls-1" points="281.35 149.86 275.82 168.91 30.27 76.79 35.8 57.74 281.35 149.86"/><polygon class="cls-1" points="19.91 112.47 25.44 93.42 270.99 185.54 265.46 204.58 19.91 112.47"/><polygon class="cls-1" points="91.58 276.5 118.42 286.56 104.51 289.98 91.58 276.5"/><polygon class="cls-1" points="63.94 247.68 32.3 214.69 182.14 270.9 148.12 279.26 63.94 247.68"/><polygon class="cls-1" points="242.63 56.2 274.27 89.19 96.76 22.6 130.78 14.24 242.63 56.2"/><polygon class="cls-1" points="160.48 6.94 188.72 0 214.99 27.39 160.48 6.94"/><polygon class="cls-1" points="291.71 114.18 286.19 133.23 40.63 41.11 42.1 36.03 67.05 29.9 291.71 114.18"/></g></g></svg>