<svg xmlns="http://www.w3.org/2000/svg" viewBox="0 0 333.52 309.44"><defs><style>.cls-1{opacity:0.3;}.cls-2{fill:#008d87;}</style></defs><g id="Layer_2" data-name="Layer 2"><g id="VECTOR_4" data-name="VECTOR 4"><g class="cls-1"><path class="cls-2" d="M329.87,175.86c7.91-13.53,2.05-31.56-8.77-42.88a59.8,59.8,0,0,0-45.86-18.11c-15.37.86-29.84,7.66-45.13,9.47s-21.19,7.49-37.15-9.26h0c-12.66-14-7.78-35.69-9.85-54.43C179.84,31,154.92,5,125.38.56c-13.21-2-28.75,1.11-35.6,12.59-9,15.15,1.71,35.39-4.26,52-9.37,26.06-48.29,23.29-69.29,41.34-20.15,17.31-18.6,49-11.07,74.42a240.76,240.76,0,0,0,59,100.14c15.44,15.68,35.37,30,57.31,28.25,19-1.49,35-14.77,46.81-29.72s20.62-32.12,33.23-46.37A115.27,115.27,0,0,1,273,195.61C293.72,193,319.31,193.93,329.87,175.86Z"/></g></g></g></svg>