<svg width="171" height="117" viewBox="0 0 171 117" fill="none" xmlns="http://www.w3.org/2000/svg">
<g clip-path="url(#clip0)">
<path d="M20.16 109.77C15.4202 92.6201 17.1242 74.3282 24.9503 58.3489C32.7765 42.3696 46.1829 29.8091 62.6377 23.0396C79.0925 16.2701 97.4565 15.7603 114.262 21.6063C131.067 27.4523 145.149 39.2496 153.85 54.77L170.12 48.07C159.607 28.2573 142.096 13.0659 120.999 5.45298C99.9007 -2.15991 76.7248 -1.64945 55.9826 6.88501C35.2404 15.4195 18.4162 31.3671 8.78525 51.6235C-0.845718 71.8799 -2.59426 94.9954 3.88002 116.47L20.16 109.77Z" fill="#F77976"/>
<path d="M98.49 110.39C116.649 110.39 131.37 95.6691 131.37 77.51C131.37 59.3509 116.649 44.63 98.49 44.63C80.3309 44.63 65.61 59.3509 65.61 77.51C65.61 95.6691 80.3309 110.39 98.49 110.39Z" fill="#FFAB00"/>
</g>
<defs>
<clipPath id="clip0">
<rect width="170.12" height="116.47" fill="white"/>
</clipPath>
</defs>
</svg>
