<svg xmlns="http://www.w3.org/2000/svg" viewBox="0 0 285 284.94"><defs><style>.cls-1{fill:#596aaa;}</style></defs><g id="Layer_2" data-name="Layer 2"><g id="Layer_8" data-name="Layer 8"><path class="cls-1" d="M284.08,24C280.13,8.93,263.32.36,247.74,0a59.51,59.51,0,0,0-45,19.52C192.52,31,187.13,45.92,177.65,58S168,78.13,145,77.57h0c-18.74-.92-30.59-19.64-45.23-31.37-23.19-18.58-59-19.3-82.89-1.66-10.7,7.9-19.44,21-16.19,33.9,4.3,17,26.1,23.71,33.59,39.59C46,143,16.68,168.39,14.61,195.87,12.62,222.22,36,243.39,59.19,256a239.55,239.55,0,0,0,112,28.92c21.9.17,46-3.79,60.2-20.44,12.3-14.39,14.26-35,12-53.84s-8.09-37.11-9.24-56A114.71,114.71,0,0,1,257.93,78C270.73,61.52,289.36,44.15,284.08,24Z"/></g></g></svg>