<svg xmlns="http://www.w3.org/2000/svg" viewBox="0 0 501.09 270.2"><defs><style>.cls-1{opacity:0.5;}.cls-2{fill:#e63d3a;}</style></defs><g id="Layer_2" data-name="Layer 2"><g id="VECTOR_4" data-name="VECTOR 4"><g class="cls-1"><path class="cls-2" d="M487.68,1.4c-11-4.09-24.37,1.52-35.87,7.32C435,17.18,417.35,26.64,399.5,26c-7.6-.27-14.83-2.39-22.49-2.19C356.91,24.36,339.39,40,322.13,52a198.35,198.35,0,0,1-34.87,19.4c-6,2.58-12.27,4.88-18.54,5-15.19.36-26.5-11.78-41.58-12.18-15.42-.41-29.75,11.38-40.58,23.31s-21.18,25.53-36.05,31.85c-13.43,5.71-28.08,4.33-41.37,1.51A192.46,192.46,0,0,1,65.2,106c-5.24-2.53-10.43-5.34-16.36-6.39C28.51,96,6.61,115.35,1.6,135.54S4.1,175.27,13.84,192c15.12,25.94,40.48,43.77,61,65.8,10.73,11.55,29.8,17.34,44.94,7.14,16.85-11.36,22.56-34.26,40.19-44.34,15.17-8.68,33-4.5,48.38,0l48.93,14.21c14.41,4.18,29.73,8.39,45.33,4.55,12.15-3,23-10.53,33.4-17.88,8.49-6,17.6-12.75,20.71-22.07,1.66-5,1.39-10.07,1.81-15.12,2.38-28.39,40.37-51.7,65.66-69.79S464.11,80,484.7,57c7.83-8.72,14.51-18.91,16.09-29.72S497.73,5.14,487.68,1.4Z"/></g></g></g></svg>