<svg xmlns="http://www.w3.org/2000/svg" viewBox="0 0 230.21 89.38"><defs><style>.cls-1{fill:#009383;}</style></defs><g id="Layer_2" data-name="Layer 2"><g id="VECTOR_9" data-name="VECTOR 9"><path class="cls-1" d="M226,1.6c-4.44-2.74-10.76-1.45-16.28.09-8.06,2.23-16.58,4.83-24.32,3-3.29-.77-6.26-2.32-9.62-2.9C167,.29,158,5.59,149.4,9.34a87.71,87.71,0,0,1-16.88,5.45,23,23,0,0,1-8.53.59c-6.65-1.16-10.54-7.43-17.08-8.91S93,8.85,87.19,13.12,75.74,22.43,68.71,23.9c-6.36,1.33-12.63-.55-18.18-2.93A84.84,84.84,0,0,1,32.66,10.65a28.4,28.4,0,0,0-6.59-4.2C17.51,3.12,6.29,9.67,2.35,18S0,35.59,2.81,43.72c4.35,12.63,13.87,22.6,20.9,34,3.68,6,11.5,10.14,19,7,8.34-3.5,12.81-13,21.37-15.87,7.37-2.47,14.78.9,21.11,4.18l20.11,10.43c5.93,3.07,12.25,6.23,19.39,5.91,5.55-.26,10.93-2.61,16.11-4.91,4.22-1.87,8.78-4,10.95-7.83,1.15-2,1.47-4.28,2.09-6.44,3.5-12.18,22.09-19.06,34.69-24.76s20.41-11.59,31.37-19.82c4.18-3.13,8-7,9.59-11.57S230.06,4.1,226,1.6Z"/></g></g></svg>