<svg xmlns="http://www.w3.org/2000/svg" viewBox="0 0 218.72 228.6"><defs><style>.cls-1{fill:#c7282d;}</style></defs><g id="Layer_2" data-name="Layer 2"><g id="VECTOR_4" data-name="VECTOR 4"><path class="cls-1" d="M65.51,218.35c10.2,5.45,20.83,10.29,32.62,10.25,11.25,0,22.14-4.11,32.22-8.79,21.67-10.06,40.93-24.57,57.31-41.91,15.47-16.38,31.75-36.69,31-60.45-.62-20.93-13.37-39.78-27.13-54.63a171.84,171.84,0,0,0-28.92-25.07,178.37,178.37,0,0,0-15.36-9.37c-5.73-3.13-11.86-5.4-17.61-8.43C115,12.23,99.75-.59,82.24,0,71.35.4,60.93,6,52.17,12.07A108,108,0,0,0,26.79,37.16,141.72,141.72,0,0,0,1.61,98.78c-3.4,22-1.64,45.53,7.48,66.06,11.21,25.22,32.79,40.72,56.42,53.51,5.62,3,9.41-6.17,3.81-9.2-19.26-10.43-38-23-48.5-42.86C12.43,150.34,9.22,131.94,10.07,114,11.92,75.12,32.26,30.19,69.54,13.48,77.93,9.72,85.4,9.11,94,12.25c7.76,2.85,15,7,22.14,11.17,7.87,4.64,16,8.25,24.08,12.43A159.14,159.14,0,0,1,168.36,54.5c15.48,12.75,30.61,29.05,37.43,48.29,3.18,9,4,18.67,1.41,27.93-2.94,10.35-9.23,19.37-15.84,27.71-15.13,19.09-33.83,35.69-55.27,47.38-10.13,5.53-21.33,10.95-32.88,12.5-12.35,1.65-23.28-3.49-33.89-9.16C63.68,206.13,59.9,215.34,65.51,218.35Z"/></g></g></svg>