<svg xmlns="http://www.w3.org/2000/svg" viewBox="0 0 201.74 182.91"><defs><style>.cls-1{fill:#eda61a;}</style></defs><g id="Layer_2" data-name="Layer 2"><g id="VECTOR_4" data-name="VECTOR 4"><circle class="cls-1" cx="52.16" cy="175.92" r="6.99"/><circle class="cls-1" cx="69.99" cy="162.07" r="6.99"/><circle class="cls-1" cx="87.81" cy="148.22" r="6.99"/><circle class="cls-1" cx="105.63" cy="134.37" r="6.99"/><circle class="cls-1" cx="123.45" cy="120.52" r="6.99"/><circle class="cls-1" cx="141.28" cy="106.67" r="6.99"/><circle class="cls-1" cx="159.1" cy="92.82" r="6.99"/><circle class="cls-1" cx="176.92" cy="78.97" r="6.99"/><circle class="cls-1" cx="194.74" cy="65.12" r="6.99"/><circle class="cls-1" cx="51.92" cy="152.8" r="6.99"/><circle class="cls-1" cx="69.74" cy="138.95" r="6.99"/><circle class="cls-1" cx="87.56" cy="125.1" r="6.99"/><circle class="cls-1" cx="105.38" cy="111.25" r="6.99"/><circle class="cls-1" cx="123.21" cy="97.41" r="6.99"/><circle class="cls-1" cx="141.03" cy="83.56" r="6.99"/><circle class="cls-1" cx="158.85" cy="69.71" r="6.99"/><circle class="cls-1" cx="176.67" cy="55.86" r="6.99"/><circle class="cls-1" cx="194.5" cy="42.01" r="6.99"/><circle class="cls-1" cx="29.58" cy="146.85" r="6.99"/><circle class="cls-1" cx="47.4" cy="133" r="6.99"/><circle class="cls-1" cx="65.22" cy="119.15" r="6.99"/><circle class="cls-1" cx="83.05" cy="105.3" r="6.99"/><circle class="cls-1" cx="100.87" cy="91.46" r="6.99"/><circle class="cls-1" cx="118.69" cy="77.61" r="6.99"/><circle class="cls-1" cx="136.51" cy="63.76" r="6.99"/><circle class="cls-1" cx="154.34" cy="49.91" r="6.99"/><circle class="cls-1" cx="172.16" cy="36.06" r="6.99"/><circle class="cls-1" cx="29.33" cy="123.74" r="6.99"/><circle class="cls-1" cx="47.15" cy="109.89" r="6.99"/><circle class="cls-1" cx="64.98" cy="96.04" r="6.99"/><circle class="cls-1" cx="82.8" cy="82.19" r="6.99"/><circle class="cls-1" cx="100.62" cy="68.34" r="6.99"/><circle class="cls-1" cx="118.44" cy="54.49" r="6.99"/><circle class="cls-1" cx="136.27" cy="40.64" r="6.99"/><circle class="cls-1" cx="154.09" cy="26.79" r="6.99"/><circle class="cls-1" cx="171.91" cy="12.94" r="6.99"/><circle class="cls-1" cx="6.99" cy="117.79" r="6.99"/><circle class="cls-1" cx="24.82" cy="103.94" r="6.99"/><circle class="cls-1" cx="42.64" cy="90.09" r="6.99"/><circle class="cls-1" cx="60.46" cy="76.24" r="6.99"/><circle class="cls-1" cx="78.28" cy="62.39" r="6.99"/><circle class="cls-1" cx="96.11" cy="48.54" r="6.99"/><circle class="cls-1" cx="113.93" cy="34.69" r="6.99"/><circle class="cls-1" cx="131.75" cy="20.84" r="6.99"/><circle class="cls-1" cx="149.58" cy="6.99" r="6.99"/></g></g></svg>