<svg width="342" height="139" viewBox="0 0 342 139" fill="none" xmlns="http://www.w3.org/2000/svg">
<path d="M10 85.5001C10 85.5001 38.3721 64.5547 59.5 63.5001C83.3307 62.3105 92.6791 86.8713 116.5 85.5001C137.264 84.3048 144.325 65.754 165 63.5001C192.377 60.5156 204.689 89.0384 232 85.5001C251.748 82.9416 258.09 63.1508 278 63.5001C297.208 63.8371 322 85.5001 322 85.5001" stroke="#33A8C7" stroke-width="20" stroke-linecap="round"/>
<path d="M10 128.219C10 128.219 38.3721 107.274 59.5 106.219C83.3307 105.03 92.6791 129.591 116.5 128.219C137.264 127.024 144.325 108.473 165 106.219C192.377 103.235 204.689 131.758 232 128.219C251.748 125.661 258.09 105.87 278 106.219C297.208 106.556 322 128.219 322 128.219" stroke="#A0E426" stroke-width="20" stroke-linecap="round"/>
<path d="M20 32.2193C20 32.2193 48.3721 11.274 69.5 10.2193C93.3307 9.02976 102.679 33.5906 126.5 32.2193C147.264 31.0241 154.325 12.4732 175 10.2193C202.377 7.23483 214.689 35.7577 242 32.2193C261.748 29.6608 268.09 9.87002 288 10.2193C307.208 10.5563 332 32.2193 332 32.2193" stroke="#FFAB00" stroke-width="20" stroke-linecap="round"/>
</svg>
